{
   "accessors" : [
      {
         "bufferView" : 0,
         "byteOffset" : 0,
         "componentType" : 5123,
         "count" : 2112,
         "max" : [ 1447 ],
         "min" : [ 0 ],
         "name" : "buffer-0-group-0-mesh-0-indices",
         "type" : "SCALAR"
      },
      {
         "bufferView" : 1,
         "byteOffset" : 0,
         "componentType" : 5126,
         "count" : 1448,
         "max" : [ 0.9620540142059326, 0.1479430049657822, 0.1101529970765114 ],
         "min" : [ -0.9620540142059326, -0.4890480041503906, -2.040074110031128 ],
         "name" : "buffer-0-group-0-mesh-0-position",
         "type" : "VEC3"
      },
      {
         "bufferView" : 1,
         "byteOffset" : 17376,
         "componentType" : 5126,
         "count" : 1448,
         "max" : [ 0.9981429576873779, 0.9835940599441528, 0.9993660449981689 ],
         "min" : [ -0.9981429576873779, -0.9726742506027222, -0.9993301033973694 ],
         "name" : "buffer-0-group-0-mesh-0-normal",
         "type" : "VEC3"
      },
      {
         "bufferView" : 0,
         "byteOffset" : 4224,
         "componentType" : 5123,
         "count" : 132,
         "max" : [ 131 ],
         "min" : [ 0 ],
         "name" : "buffer-0-group-1-mesh-0-indices",
         "type" : "SCALAR"
      },
      {
         "bufferView" : 1,
         "byteOffset" : 34752,
         "componentType" : 5126,
         "count" : 132,
         "max" : [ 0.7752389907836914, 0.06286799907684326, 0.08915200084447861 ],
         "min" : [ -0.7752389907836914, -0.4017120003700256, -0.008964999578893185 ],
         "name" : "buffer-0-group-1-mesh-0-position",
         "type" : "VEC3"
      },
      {
         "bufferView" : 1,
         "byteOffset" : 36336,
         "componentType" : 5126,
         "count" : 132,
         "max" : [ 0.1362988352775574, 0.07999871671199799, 0.9965847134590149 ],
         "min" : [ -0.1362988352775574, -0.08680158853530884, -0.9973050355911255 ],
         "name" : "buffer-0-group-1-mesh-0-normal",
         "type" : "VEC3"
      }
   ],
   "asset" : {
      "extras" : {
         "GOOGLE_processor_version" : 293297437
      },
      "generator" : "Obj2GltfConverter",
      "version" : "2.0"
   },
   "bufferViews" : [
      {
         "buffer" : 0,
         "byteLength" : 4488,
         "byteOffset" : 0,
         "name" : "buffer-0-bufferview-ushort",
         "target" : 34963
      },
      {
         "buffer" : 0,
         "byteLength" : 37920,
         "byteOffset" : 4488,
         "byteStride" : 12,
         "name" : "buffer-0-bufferview-vec3",
         "target" : 34962
      }
   ],
   "buffers" : [
      {
         "byteLength" : 42408,
         "name" : "buffer-0",
         "uri" : "Glasses.bin"
      }
   ],
   "cameras" : [
      {
         "perspective" : {
            "yfov" : 0.7853981633974483,
            "znear" : 0.1000000014901161
         },
         "type" : "perspective"
      }
   ],
   "extensions" : {
      "KHR_lights_punctual" : {
         "lights" : [
            {
               "color" : [ 1, 0.9333333333333333, 0.8666666666666667 ],
               "intensity" : 0.25,
               "name" : "headLight",
               "type" : "directional"
            },
            {
               "color" : [ 1, 0.9333333333333333, 0.8666666666666667 ],
               "intensity" : 0.324999988079071,
               "name" : "keyLight",
               "type" : "directional"
            }
         ]
      }
   },
   "extensionsUsed" : [ "GOOGLE_backgrounds", "GOOGLE_camera_settings", "KHR_lights_punctual" ],
   "extras" : {
      "GOOGLE_initial_camera_motion" : {
         "motionPath" : "FULL_ROTATION"
      },
      "GOOGLE_lighting_rig" : {
         "disableShadows" : false
      }
   },
   "materials" : [
      {
         "alphaMode" : "BLEND",
         "doubleSided" : true,
         "name" : "Material.002",
         "pbrMetallicRoughness" : {
            "baseColorFactor" : [ 0.9, 0.9, 1, 0.5 ],
            "metallicFactor" : 0,
            "roughnessFactor" : 0.9251110784504569
         }
      },
      {
         "alphaMode" : "BLEND",
         "doubleSided" : true,
         "name" : "Material",
         "pbrMetallicRoughness" : {
            "baseColorFactor" : [ 0.72, 0.72, 0.8, 0.1 ],
            "metallicFactor" : 0,
            "roughnessFactor" : 0.9251110784504569
         }
      }
   ],
   "meshes" : [
      {
         "name" : "buffer-0-mesh-0",
         "primitives" : [
            {
               "attributes" : {
                  "NORMAL" : 2,
                  "POSITION" : 1
               },
               "indices" : 0,
               "material" : 0,
               "mode" : 4
            },
            {
               "attributes" : {
                  "NORMAL" : 5,
                  "POSITION" : 4
               },
               "indices" : 3,
               "material" : 1,
               "mode" : 4
            }
         ]
      }
   ],
   "nodes" : [
      {
         "mesh" : 0,
         "name" : "node-0"
      },
      {
         "children" : [ 2 ]
      },
      {
         "children" : [ 3 ],
         "extras" : {
            "isTransformNode" : 1
         },
         "translation" : [ -0.005375567767769103, -0.1477568191393439, -0.668891421444104 ]
      },
      {
         "children" : [ 0 ],
         "translation" : [ 0.005375567767769103, 0.1477568191393439, 0.668891421444104 ]
      },
      {
         "camera" : 0,
         "children" : [ 5 ],
         "rotation" : [
            -0.2496386627335144,
            0.315383810669518,
            0.08638046641423654,
            0.9114559808670166
         ],
         "translation" : [ 5.518270125964112, 5.144910064413898, 6.356856947180562 ]
      },
      {
         "extensions" : {
            "KHR_lights_punctual" : {
               "light" : 0
            }
         },
         "extras" : {
            "isHeadLight" : 1
         },
         "name" : "headLightNode",
         "translation" : [ -2.005666508011693, 1.002833254005847, 1.002833254005847 ]
      },
      {
         "extensions" : {
            "KHR_lights_punctual" : {
               "light" : 1
            }
         },
         "extras" : {
            "isKeyLight" : 1
         },
         "name" : "keyLightNode",
         "rotation" : [ -0.7505326882858236, -0.3752663441429118, 0, 0.5439447166468927 ],
         "scale" : [ 0, 0, 2.02572317309181 ],
         "translation" : [ -2.025723164754705, 3.942243912943457, -2.445659427725772 ]
      }
   ],
   "scene" : 0,
   "scenes" : [
      {
         "extensions" : {
            "GOOGLE_backgrounds" : {
               "color" : [ 0.9607843137254902, 0.9607843137254902, 0.9607843137254902 ]
            },
            "GOOGLE_camera_settings" : {
               "pivot" : [ -0.005363028076234677, -0.1477830596919936, -0.6691153949952877 ]
            }
         },
         "extras" : {
            "GOOGLE_camera_index" : {
               "cameraIndex" : 0,
               "nodeIndex" : 4
            },
            "GOOGLE_geometry_data" : {
               "stats" : {
                  "centroid" : [ 8.337105376810967e-09, -0.1092024332401637, -0.4199362546339619 ],
                  "radius" : 2.005666508011693,
                  "stdev" : 1.018008819226917
               },
               "visualCenterPoint" : [ -0.005375567767769103, -0.1477568191393439, -0.668891421444104 ]
            },
            "GOOGLE_hemi_light" : {
               "groundColor" : [ 0.9607843137254902, 0.9607843137254902, 0.9607843137254902 ]
            }
         },
         "name" : "scene-0",
         "nodes" : [ 1, 4, 6 ]
      }
   ]
}
